<svg width="100" height="100" viewBox="0 0 100 100" fill="none" xmlns="http://www.w3.org/2000/svg">
<rect width="100" height="100" rx="50" fill="#3C91CF" fill-opacity="0.1"/>
<path opacity="0.4" d="M62.2108 32.7871H54.8531C53.0202 32.7992 51.28 31.9839 50.1184 30.5688L47.6955 27.2191C46.5534 25.7915 44.8132 24.9724 42.983 25.0007H37.7815C28.4455 25.0007 25 30.48 25 39.7971V49.8684C24.9884 50.976 74.9891 50.9745 74.9923 49.8684V46.9402C75.0368 37.6231 71.6802 32.7871 62.2108 32.7871Z" fill="#3C91CF"/>
<path fill-rule="evenodd" clip-rule="evenodd" d="M72.0804 36.3586C72.8802 37.2938 73.4983 38.3696 73.9031 39.5308C74.6996 41.9175 75.0683 44.4257 74.9923 46.9401V60.0727C74.9891 61.1789 74.9074 62.2834 74.7478 63.3781C74.4439 65.3099 73.7642 67.1637 72.7472 68.8352C72.2798 69.6426 71.7122 70.3879 71.0578 71.0535C68.0958 73.7721 64.1624 75.1871 60.1436 74.98H39.8266C35.8013 75.1856 31.8616 73.7712 28.89 71.0535C28.2435 70.3866 27.6834 69.6413 27.2229 68.8352C26.2119 67.1649 25.5467 65.3093 25.2668 63.3781C25.0887 62.2853 24.9995 61.1799 25 60.0727V46.9401C24.9996 45.8433 25.059 44.7473 25.1779 43.657C25.2029 43.4657 25.2404 43.2775 25.2775 43.0912C25.3393 42.7808 25.4001 42.4757 25.4001 42.1707C25.6258 40.8549 26.0374 39.5777 26.6227 38.3773C28.3566 34.6726 31.9131 32.7871 37.7371 32.7871H62.1886C65.4506 32.5348 68.6882 33.5168 71.2579 35.5378C71.5538 35.7888 71.8289 36.0632 72.0804 36.3586ZM37.4259 58.8526H62.5887H62.6332C63.1853 58.8766 63.7241 58.679 64.1292 58.3039C64.5343 57.9288 64.7721 57.4074 64.7894 56.8561C64.8206 56.3716 64.6611 55.894 64.3448 55.5251C63.981 55.0294 63.4045 54.7335 62.7888 54.7265H37.4259C36.2841 54.7265 35.3586 55.6502 35.3586 56.7896C35.3586 57.929 36.2841 58.8526 37.4259 58.8526Z" fill="#3C91CF"/>
</svg>
