<svg width="100" height="100" viewBox="0 0 100 100" fill="none" xmlns="http://www.w3.org/2000/svg">
<rect width="100" height="100" rx="50" fill="#3C91CF" fill-opacity="0.1"/>
<path d="M67.022 42.5525C65.8933 42.5525 64.3981 42.5275 62.5366 42.5275C57.9968 42.5275 54.2639 38.77 54.2639 34.1875V26.1475C54.2639 25.515 53.7589 25 53.1326 25H39.9091C33.7379 25 28.75 30.065 28.75 36.2725V63.21C28.75 69.7225 33.9756 75 40.4239 75H60.1157C66.2646 75 71.25 69.9675 71.25 63.755V43.6775C71.25 43.0425 70.7475 42.53 70.1187 42.5325C69.0618 42.54 67.7944 42.5525 67.022 42.5525" fill="#3C91CF"/>
<path opacity="0.4" d="M60.21 26.4183C59.4625 25.6408 58.1575 26.1758 58.1575 27.2533V33.8458C58.1575 36.6108 60.435 38.8858 63.2 38.8858C64.9425 38.9058 67.3625 38.9108 69.4175 38.9058C70.47 38.9033 71.005 37.6458 70.275 36.8858C67.6375 34.1433 62.915 29.2283 60.21 26.4183" fill="#3C91CF"/>
<path fill-rule="evenodd" clip-rule="evenodd" d="M42.4348 48.469H50.8973C51.9248 48.469 52.7598 47.6365 52.7598 46.609C52.7598 45.5815 51.9248 44.7465 50.8973 44.7465H42.4348C41.4073 44.7465 40.5748 45.5815 40.5748 46.609C40.5748 47.6365 41.4073 48.469 42.4348 48.469ZM42.435 60.9545H56.045C57.0725 60.9545 57.9075 60.122 57.9075 59.0945C57.9075 58.067 57.0725 57.232 56.045 57.232H42.435C41.4075 57.232 40.575 58.067 40.575 59.0945C40.575 60.122 41.4075 60.9545 42.435 60.9545Z" fill="white"/>
</svg>
