<svg width="100" height="100" viewBox="0 0 100 100" fill="none" xmlns="http://www.w3.org/2000/svg">
<rect width="100" height="100" rx="50" fill="#3C91CF" fill-opacity="0.1"/>
<path opacity="0.4" d="M60.1888 25H68.6537C72.1594 25 75 27.8646 75 31.3999V39.9363C75 43.4716 72.1594 46.3362 68.6537 46.3362H60.1888C56.6831 46.3362 53.8425 43.4716 53.8425 39.9363V31.3999C53.8425 27.8646 56.6831 25 60.1888 25" fill="#3C91CF"/>
<path fill-rule="evenodd" clip-rule="evenodd" d="M31.3463 25H39.8112C43.3169 25 46.1575 27.8646 46.1575 31.3999V39.9363C46.1575 43.4716 43.3169 46.3362 39.8112 46.3362H31.3463C27.8406 46.3362 25 43.4716 25 39.9363V31.3999C25 27.8646 27.8406 25 31.3463 25ZM31.3463 53.6638H39.8112C43.3169 53.6638 46.1575 56.5284 46.1575 60.0637V68.6001C46.1575 72.133 43.3169 75 39.8112 75H31.3463C27.8406 75 25 72.133 25 68.6001V60.0637C25 56.5284 27.8406 53.6638 31.3463 53.6638ZM68.6537 53.6638H60.1888C56.6831 53.6638 53.8425 56.5284 53.8425 60.0637V68.6001C53.8425 72.133 56.6831 75 60.1888 75H68.6537C72.1594 75 75 72.133 75 68.6001V60.0637C75 56.5284 72.1594 53.6638 68.6537 53.6638Z" fill="#3C91CF"/>
</svg>
