<svg width="100" height="100" viewBox="0 0 100 100" fill="none" xmlns="http://www.w3.org/2000/svg">
<rect width="100" height="100" rx="50" fill="#3C91CF" fill-opacity="0.1"/>
<path opacity="0.4" d="M72.7526 43.9697H69.7449V41.029C69.7449 39.7736 68.738 38.75 67.4974 38.75C66.2594 38.75 65.25 39.7736 65.25 41.029V43.9697H62.2474C61.0068 43.9697 60 44.9933 60 46.2487C60 47.5041 61.0068 48.5277 62.2474 48.5277H65.25V51.471C65.25 52.7264 66.2594 53.75 67.4974 53.75C68.738 53.75 69.7449 52.7264 69.7449 51.471V48.5277H72.7526C73.9906 48.5277 75 47.5041 75 46.2487C75 44.9933 73.9906 43.9697 72.7526 43.9697" fill="#3C91CF"/>
<path d="M43.75 57.5388C33.6356 57.5388 25 59.1559 25 65.6166C25 72.0747 33.583 73.7501 43.75 73.7501C53.8619 73.7501 62.5 72.133 62.5 65.6723C62.5 59.2116 53.917 57.5388 43.75 57.5388" fill="#3C91CF"/>
<path opacity="0.4" d="M43.75 51.3855C50.6364 51.3855 56.1566 45.7942 56.1566 38.819C56.1566 31.8438 50.6364 26.25 43.75 26.25C36.8636 26.25 31.3434 31.8438 31.3434 38.819C31.3434 45.7942 36.8636 51.3855 43.75 51.3855" fill="#3C91CF"/>
</svg>
