<svg width="100" height="100" viewBox="0 0 100 100" fill="none" xmlns="http://www.w3.org/2000/svg">
<rect width="100" height="100" rx="50" fill="#3C91CF" fill-opacity="0.1"/>
<path opacity="0.4" d="M49.8726 56.3499C41.2476 56.3499 33.9702 57.7592 33.9702 63.1986C33.9702 68.6402 41.2946 70 49.8726 70C58.4975 70 65.7749 68.5907 65.7749 63.1513C65.7749 57.7097 58.4505 56.3499 49.8726 56.3499" fill="#3C91CF"/>
<path opacity="0.4" d="M49.8726 51.1676C55.7128 51.1676 60.3958 46.4577 60.3958 40.5838C60.3958 34.7077 55.7128 30 49.8726 30C44.0323 30 39.3494 34.7077 39.3494 40.5838C39.3494 46.4577 44.0323 51.1676 49.8726 51.1676" fill="#3C91CF"/>
<path opacity="0.4" d="M72.7199 43.0482C74.2309 37.1045 69.8009 31.7665 64.1598 31.7665C63.5465 31.7665 62.96 31.834 62.3869 31.9488C62.3108 31.9669 62.2258 32.0051 62.181 32.0727C62.1295 32.1582 62.1676 32.273 62.2235 32.3473C63.9181 34.7383 64.8918 37.6494 64.8918 40.7743C64.8918 43.7686 63.9987 46.5604 62.4317 48.877C62.2705 49.1157 62.4138 49.4376 62.6981 49.4872C63.0921 49.557 63.495 49.593 63.9069 49.6042C68.0145 49.7123 71.7014 47.0534 72.7199 43.0482" fill="#3C91CF"/>
<path opacity="0.4" d="M77.0232 57.0424C76.2711 55.4304 74.4556 54.325 71.6956 53.7824C70.3928 53.4627 66.8671 53.0124 63.5877 53.0732C63.5384 53.0799 63.5116 53.1137 63.5071 53.1362C63.5004 53.1678 63.5138 53.2218 63.5787 53.2556C65.0942 54.0098 70.9524 57.29 70.2159 64.2086C70.1846 64.508 70.4241 64.7669 70.7218 64.7219C72.1634 64.5148 75.8726 63.7133 77.0232 61.2165C77.6589 59.8972 77.6589 58.364 77.0232 57.0424" fill="#3C91CF"/>
<path opacity="0.4" d="M37.612 31.9495C37.0412 31.8324 36.4525 31.7671 35.8392 31.7671C30.1981 31.7671 25.7681 37.1051 27.2813 43.0488C28.2976 47.054 31.9844 49.7129 36.0921 49.6049C36.504 49.5936 36.9092 49.5553 37.3009 49.4878C37.5852 49.4382 37.7285 49.1163 37.5673 48.8777C36.0003 46.5587 35.1072 43.7692 35.1072 40.7749C35.1072 37.6477 36.0831 34.7367 37.7777 32.3479C37.8314 32.2737 37.8717 32.1588 37.818 32.0733C37.7732 32.0035 37.6904 31.9675 37.612 31.9495" fill="#3C91CF"/>
<path opacity="0.4" d="M28.3039 53.7816C25.5438 54.3242 23.7306 55.4296 22.9785 57.0416C22.3405 58.3632 22.3405 59.8964 22.9785 61.218C24.1291 63.7125 27.8383 64.5163 29.2799 64.7211C29.5776 64.7662 29.8149 64.5095 29.7835 64.2078C29.0471 57.2915 34.9052 54.0113 36.423 53.2571C36.4856 53.221 36.4991 53.1692 36.4923 53.1355C36.4879 53.113 36.4632 53.0792 36.414 53.0747C33.1323 53.0117 29.6089 53.4619 28.3039 53.7816" fill="#3C91CF"/>
</svg>
