<svg width="100" height="100" viewBox="0 0 100 100" fill="none" xmlns="http://www.w3.org/2000/svg">
<rect width="100" height="100" rx="50" fill="#3C91CF" fill-opacity="0.1"/>
<path d="M43.3733 57.1443C33.4638 57.1443 25 58.6751 25 64.7934C25 70.9165 33.41 72.5 43.3733 72.5C53.2828 72.5 61.7467 70.9692 61.7467 64.8509C61.7467 58.7278 53.3367 57.1443 43.3733 57.1443" fill="#3C91CF"/>
<path opacity="0.4" d="M43.3733 51.3121C50.1224 51.3121 55.5309 46.0154 55.5309 39.406C55.5309 32.7966 50.1224 27.5 43.3733 27.5C36.6267 27.5 31.2158 32.7966 31.2158 39.406C31.2158 46.0154 36.6267 51.3121 43.3733 51.3121" fill="#3C91CF"/>
<path opacity="0.4" d="M60.4335 39.6218C60.4335 42.9876 59.4012 46.1282 57.5911 48.737C57.4027 49.0053 57.5691 49.367 57.8968 49.4245C58.3518 49.4988 58.8191 49.5443 59.2961 49.5539C64.0417 49.6761 68.3005 46.684 69.4771 42.1779C71.2212 35.4918 66.1038 29.4885 59.5847 29.4885C58.8778 29.4885 58.2002 29.5604 57.5397 29.6921C57.4492 29.7113 57.3513 29.7544 57.3024 29.8311C57.2388 29.9293 57.2853 30.0563 57.3489 30.1401C59.3083 32.8304 60.4335 36.1051 60.4335 39.6218" fill="#3C91CF"/>
<path d="M74.4478 57.9234C73.5794 56.1099 71.483 54.8666 68.2932 54.2557C66.7888 53.8964 62.7134 53.3861 58.9243 53.458C58.868 53.4652 58.8362 53.5035 58.8313 53.5275C58.824 53.5658 58.8411 53.6233 58.9145 53.664C60.6659 54.5121 67.4345 58.2013 66.5833 65.9821C66.5466 66.3223 66.823 66.6097 67.1679 66.5618C68.8338 66.3295 73.1195 65.4263 74.4478 62.6187C75.1841 61.1334 75.1841 59.4086 74.4478 57.9234" fill="#3C91CF"/>
</svg>
