<svg width="100" height="100" viewBox="0 0 100 100" fill="none" xmlns="http://www.w3.org/2000/svg">
<rect width="100" height="100" rx="50" fill="#3C91CF" fill-opacity="0.1"/>
<path opacity="0.4" d="M25.0005 47.6963C25.1255 53.5413 25.4755 63.5388 25.5255 64.6413C25.703 66.9988 26.6055 69.3813 28.0105 71.0613C29.9655 73.4188 32.373 74.4713 35.7305 74.4713C40.3705 74.4963 45.4855 74.4963 50.453 74.4963C55.4405 74.4963 60.2805 74.4963 64.368 74.4713C67.678 74.4713 70.1605 73.3913 72.0905 71.0613C73.4955 69.3813 74.398 66.9738 74.5255 64.6413C74.5755 63.7138 74.8255 52.8613 74.9755 47.6963H25.0005Z" fill="#3C91CF"/>
<path d="M48.1135 58.4604V61.6954C48.1135 62.7304 48.9535 63.5704 49.9885 63.5704C51.0235 63.5704 51.8635 62.7304 51.8635 61.6954V58.4604C51.8635 57.4254 51.0235 56.5854 49.9885 56.5854C48.9535 56.5854 48.1135 57.4254 48.1135 58.4604" fill="#3C91CF"/>
<path fill-rule="evenodd" clip-rule="evenodd" d="M45.5282 56.391C45.2782 57.2985 44.4057 57.8785 43.4607 57.7535C37.0832 56.8635 30.9882 54.601 25.8432 51.2035C25.3157 50.8585 25.0007 50.2685 25.0007 49.6385V40.9735C25.0007 35.7235 29.2807 31.4535 34.5432 31.4535H39.4607C39.9307 27.8235 43.0057 25.001 46.7607 25.001H53.2157C56.9682 25.001 60.0457 27.8235 60.5157 31.4535H65.4582C70.7057 31.4535 74.9757 35.7235 74.9757 40.9735V49.6385C74.9757 50.2685 74.6582 50.856 74.1357 51.2035C68.9807 54.616 62.8607 56.8885 56.4407 57.776C56.3532 57.7885 56.2682 57.7935 56.1832 57.7935C55.3357 57.7935 54.5782 57.221 54.3657 56.381C53.8607 54.391 52.0532 52.9985 49.9757 52.9985C47.8707 52.9985 46.0832 54.361 45.5282 56.391ZM53.2157 28.751H46.7607C45.0782 28.751 43.6732 29.901 43.2532 31.4535H56.7207C56.3007 29.901 54.8957 28.751 53.2157 28.751Z" fill="#3C91CF"/>
</svg>
